<?xml version="1.0" standalone="no"?><!DOCTYPE svg PUBLIC "-//W3C//DTD SVG 1.1//EN" "http://www.w3.org/Graphics/SVG/1.1/DTD/svg11.dtd"><svg t="1566730285935" class="icon" viewBox="0 0 1024 1024" version="1.1" xmlns="http://www.w3.org/2000/svg" p-id="7974" xmlns:xlink="http://www.w3.org/1999/xlink" width="200" height="200"><defs><style type="text/css"></style></defs><path d="M512 512m-414 0a414 414 0 1 0 828 0 414 414 0 1 0-828 0Z" fill="#F0C48A" p-id="7975"></path><path d="M937.8 1012.2H86.2c-41.2 0-74.4-33.4-74.4-74.4V86.2c0-41.2 33.4-74.4 74.4-74.4h851.6c41.2 0 74.4 33.4 74.4 74.4v851.6c0 41.2-33.2 74.4-74.4 74.4z" fill="#D3E6F8" p-id="7976"></path><path d="M935 1012.2h-65.2V11.8h65.2c42.8 0 77.4 34.6 77.4 77.4v845.8c-0.2 42.6-34.8 77.2-77.4 77.2z" fill="#A4CFF2" p-id="7977"></path><path d="M115.215196 612.588503a49.2 49.2 0 1 0 69.578093-69.580521 49.2 49.2 0 1 0-69.578093 69.580521Z" fill="#FD919E" p-id="7978"></path><path d="M138.727631 484.506606a49.2 49.2 0 1 0 22.613495-95.766329 49.2 49.2 0 1 0-22.613495 95.766329Z" fill="#FD919E" p-id="7979"></path><path d="M150 295.6m-49.2 0a49.2 49.2 0 1 0 98.4 0 49.2 49.2 0 1 0-98.4 0Z" fill="#FD919E" p-id="7980"></path><path d="M435.2 148.8m-49.2 0a49.2 49.2 0 1 0 98.4 0 49.2 49.2 0 1 0-98.4 0Z" fill="#FD919E" p-id="7981"></path><path d="M400.334384 657.605409a49.2 49.2 0 1 0 69.578092-69.580522 49.2 49.2 0 1 0-69.578092 69.580522Z" fill="#FD919E" p-id="7982"></path><path d="M435.2 860.4m-49.2 0a49.2 49.2 0 1 0 98.4 0 49.2 49.2 0 1 0-98.4 0Z" fill="#FD919E" p-id="7983"></path><path d="M575 860.4m-49.2 0a49.2 49.2 0 1 0 98.4 0 49.2 49.2 0 1 0-98.4 0Z" fill="#FD919E" p-id="7984"></path><path d="M719.6 295.8m-49.2 0a49.2 49.2 0 1 0 98.4 0 49.2 49.2 0 1 0-98.4 0Z" fill="#FD919E" p-id="7985"></path><path d="M850.519887 482.324821a49.2 49.2 0 1 0 22.613495-95.766329 49.2 49.2 0 1 0-22.613495 95.766329Z" fill="#FD919E" p-id="7986"></path><path d="M937.8 1024H86.2C38.6 1024 0 985.4 0 937.8V86.2C0 38.6 38.6 0 86.2 0h851.6C985.4 0 1024 38.6 1024 86.2v851.6c0 47.6-38.6 86.2-86.2 86.2zM86.2 23.4c-34.6 0-62.8 28.2-62.8 62.8v851.6c0 34.6 28.2 62.8 62.8 62.8h851.6c34.6 0 62.8-28.2 62.8-62.8V86.2c0-34.6-28.2-62.8-62.8-62.8H86.2z" fill="#4C4372" p-id="7987"></path><path d="M153.6 1021.2c-6.4 0-11.8-5.2-11.8-11.8V629.8c0-6.4 5.2-11.8 11.8-11.8 6.4 0 11.8 5.2 11.8 11.8v379.8c-0.2 6.4-5.4 11.6-11.8 11.6z" fill="#4C4372" p-id="7988"></path><path d="M150 638.6c-33.6 0-60.8-27.2-60.8-60.8 0-33.6 27.2-60.8 60.8-60.8 33.6 0 60.8 27.2 60.8 60.8 0 33.6-27.2 60.8-60.8 60.8z m0-98.2c-20.6 0-37.4 16.8-37.4 37.4 0 20.6 16.8 37.4 37.4 37.4 20.6 0 37.4-16.8 37.4-37.4 0-20.6-16.8-37.4-37.4-37.4zM150 497.4c-33.6 0-60.8-27.2-60.8-60.8 0-33.6 27.2-60.8 60.8-60.8 33.6 0 60.8 27.2 60.8 60.8 0 33.6-27.2 60.8-60.8 60.8z m0-98.2c-20.6 0-37.4 16.8-37.4 37.4 0 20.6 16.8 37.4 37.4 37.4 20.6 0 37.4-16.8 37.4-37.4 0-20.6-16.8-37.4-37.4-37.4zM150 356.4c-33.6 0-60.8-27.2-60.8-60.8 0-33.6 27.2-60.8 60.8-60.8 33.6 0 60.8 27.2 60.8 60.8 0 33.6-27.2 60.8-60.8 60.8z m0-98.2c-20.6 0-37.4 16.8-37.4 37.4s16.8 37.4 37.4 37.4c20.6 0 37.4-16.8 37.4-37.4s-16.8-37.4-37.4-37.4zM435.2 209.6c-33.6 0-60.8-27.2-60.8-60.8 0-33.6 27.2-60.8 60.8-60.8 33.6 0 60.8 27.2 60.8 60.8 0 33.6-27.2 60.8-60.8 60.8z m0-98.2c-20.6 0-37.4 16.8-37.4 37.4 0 20.6 16.8 37.4 37.4 37.4 20.6 0 37.4-16.8 37.4-37.4 0-20.6-16.8-37.4-37.4-37.4zM435.2 683.8c-33.6 0-60.8-27.2-60.8-60.8 0-33.6 27.2-60.8 60.8-60.8 33.6 0 60.8 27.2 60.8 60.8 0 33.4-27.2 60.8-60.8 60.8z m0-98.4c-20.6 0-37.4 16.8-37.4 37.4 0 20.6 16.8 37.4 37.4 37.4 20.6 0 37.4-16.8 37.4-37.4 0-20.6-16.8-37.4-37.4-37.4zM435.2 921.2c-33.6 0-60.8-27.2-60.8-60.8 0-33.6 27.2-60.8 60.8-60.8 33.6 0 60.8 27.2 60.8 60.8 0 33.6-27.2 60.8-60.8 60.8z m0-98.2c-20.6 0-37.4 16.8-37.4 37.4 0 20.6 16.8 37.4 37.4 37.4 20.6 0 37.4-16.8 37.4-37.4 0-20.6-16.8-37.4-37.4-37.4zM575 921.2c-33.6 0-60.8-27.2-60.8-60.8 0-33.6 27.2-60.8 60.8-60.8 33.6 0 60.8 27.2 60.8 60.8 0 33.6-27.2 60.8-60.8 60.8z m0-98.2c-20.6 0-37.4 16.8-37.4 37.4 0 20.6 16.8 37.4 37.4 37.4 20.6 0 37.4-16.8 37.4-37.4 0-20.6-16.8-37.4-37.4-37.4zM719.6 356.6c-33.6 0-60.8-27.2-60.8-60.8 0-33.6 27.2-60.8 60.8-60.8 33.6 0 60.8 27.2 60.8 60.8 0 33.6-27.4 60.8-60.8 60.8z m0-98.2c-20.6 0-37.4 16.8-37.4 37.4 0 20.6 16.8 37.4 37.4 37.4s37.4-16.8 37.4-37.4c0-20.6-16.8-37.4-37.4-37.4z" fill="#4C4372" p-id="7989"></path><path d="M289.6 1024c-6.4 0-11.8-5.2-11.8-11.8V495.8c0-26-21-47-47-47H199.2c-6.4 0-11.8-5.2-11.8-11.8s5.2-11.8 11.8-11.8h31.8c38.8 0 70.4 31.6 70.4 70.4V1012c0 6.8-5.4 12-11.8 12zM435.2 585.8c-6.4 0-11.8-5.2-11.8-11.8V354.4c0-26-21-47-47-47H199.2c-6.4 0-11.8-5.2-11.8-11.8s5.2-11.8 11.8-11.8h177.4c38.8 0 70.4 31.6 70.4 70.4V574c0 6.6-5.4 11.8-11.8 11.8zM575 823c-6.4 0-11.8-5.2-11.8-11.8v-602c0-38.8 31.6-70.4 70.4-70.4h378.6c6.4 0 11.8 5.2 11.8 11.8s-5.2 11.8-11.8 11.8H633.8c-26 0-47 21-47 47v602c0 6.4-5.2 11.6-11.8 11.6z" fill="#4C4372" p-id="7990"></path><path d="M719.6 1017.2c-6.4 0-11.8-5.2-11.8-11.8V345c0-6.4 5.2-11.8 11.8-11.8 6.4 0 11.8 5.2 11.8 11.8v660.6c-0.2 6.4-5.4 11.6-11.8 11.6zM861.8 495.2c-33.6 0-60.8-27.2-60.8-60.8 0-33.6 27.2-60.8 60.8-60.8 33.6 0 60.8 27.2 60.8 60.8 0.2 33.4-27.2 60.8-60.8 60.8z m0-98.2c-20.6 0-37.4 16.8-37.4 37.4 0 20.6 16.8 37.4 37.4 37.4 20.6 0 37.4-16.8 37.4-37.4 0-20.8-16.6-37.4-37.4-37.4z" fill="#4C4372" p-id="7991"></path><path d="M861.8 1018.8c-6.4 0-11.8-5.2-11.8-11.8V483.4c0-6.4 5.2-11.8 11.8-11.8 6.4 0 11.8 5.2 11.8 11.8v523.8c0 6.4-5.2 11.6-11.8 11.6zM386 160.6h-173.8c-38.8 0-70.4-31.6-70.4-70.4V20c0-6.4 5.2-11.8 11.8-11.8 6.4 0 11.8 5.2 11.8 11.8v70.2c0 26 21 47 47 47H386c6.4 0 11.8 5.2 11.8 11.8 0 6.4-5.2 11.6-11.8 11.6zM435.2 1021.2c-6.4 0-11.8-5.2-11.8-11.8v-100c0-6.4 5.2-11.8 11.8-11.8 6.4 0 11.8 5.2 11.8 11.8v100c0 6.6-5.4 11.8-11.8 11.8z" fill="#4C4372" p-id="7992"></path></svg>